<svg viewBox="0 0 300 300" xmlns="http://www.w3.org/2000/svg" role="img" aria-label="Logo Iglesia">
  <defs>
    <linearGradient id="grad1" x1="0%" y1="0%" x2="100%" y2="100%">
      <stop offset="0%" stop-color="#2f80ed"/>
      <stop offset="100%" stop-color="#1f4e79"/>
    </linearGradient>
    <linearGradient id="grad2" x1="0%" y1="0%" x2="100%" y2="100%">
      <stop offset="0%" stop-color="#f59e0b"/>
      <stop offset="100%" stop-color="#f97316"/>
    </linearGradient>
  </defs>
  <rect width="300" height="300" rx="40" fill="#ffffff"/>
  <circle cx="150" cy="140" r="80" fill="url(#grad1)" opacity="0.92"/>
  <path d="M150 65c22 0 40 18 40 40s-18 40-40 40-40-18-40-40 18-40 40-40z" fill="#ffffff" opacity="0.18"/>
  <path d="M150 70 L150 210" stroke="#ffffff" stroke-width="18" stroke-linecap="round"/>
  <path d="M100 120 L200 120" stroke="#ffffff" stroke-width="18" stroke-linecap="round"/>
  <path d="M150 95c12 18 20 36 20 54c0 38-28 56-28 80" fill="none" stroke="url(#grad2)" stroke-width="18" stroke-linecap="round"/>
  <path d="M150 95c-12 18-20 36-20 54c0 38 28 56 28 80" fill="none" stroke="url(#grad2)" stroke-width="18" stroke-linecap="round"/>
  <path d="M90 210 C110 195 130 190 150 190 C170 190 190 195 210 210" fill="none" stroke="#ffffff" stroke-width="16" stroke-linecap="round"/>
  <path d="M140 198 L140 240" stroke="#ffffff" stroke-width="12" stroke-linecap="round"/>
  <path d="M160 198 L160 240" stroke="#ffffff" stroke-width="12" stroke-linecap="round"/>
</svg>